{"asset": {"version": "2.0"}, "buffers": [{"uri": "data:application/octet-stream;base64,", "byteLength": 60}], "bufferViews": [{"buffer": 0, "byteOffset": 0, "byteLength": 48, "target": 34962}, {"buffer": 0, "byteOffset": 48, "byteLength": 12, "target": 34963}], "accessors": [{"bufferView": 0, "componentType": 5126, "count": 4, "type": "VEC3", "max": [0.5, 0.5, 0], "min": [-0.5, -0.5, 0]}, {"bufferView": 1, "componentType": 5123, "count": 6, "type": "SCALAR"}], "meshes": [{"primitives": [{"attributes": {"POSITION": 0}, "indices": 1}]}], "nodes": [{"mesh": 0}], "scenes": [{"nodes": [0]}], "scene": 0}